<svg xmlns="http://www.w3.org/2000/svg" width="78.033" height="43.729" viewBox="0 0 78.033 43.729">
  <g id="Haschem_Bharat" data-name="Haschem Bharat" transform="translate(-392.925 -222.219)">
    <g id="Group_782" data-name="Group 782" transform="translate(392.925 222.219)">
      <circle id="Ellipse_12" data-name="Ellipse 12" cx="2.35" cy="2.35" r="2.35" transform="translate(30.662 37.799) rotate(-39.528)" fill="#fff"/>
      <circle id="Ellipse_13" data-name="Ellipse 13" cx="1.801" cy="1.801" r="1.801" transform="translate(20.376 32.528) rotate(-62.081)" fill="#fff"/>
      <circle id="Ellipse_14" data-name="Ellipse 14" cx="1.801" cy="1.801" r="1.801" transform="translate(17.815 4.162) rotate(-34.809)" fill="#fff"/>
      <circle id="Ellipse_15" data-name="Ellipse 15" cx="2.35" cy="2.35" r="2.35" transform="matrix(0.968, -0.251, 0.251, 0.968, 6.046, 30.114)" fill="#fff"/>
      <path id="Path_1284" data-name="Path 1284" d="M432.728,244.509a5.9,5.9,0,0,0-2.955.029,5.952,5.952,0,0,0-4.117,6.628,3.651,3.651,0,0,1-1.463,3.517c-.611.447-1.242.9-1.844,1.337-.864.623-1.669,1.2-2.267,1.625l-.681.489-.307.221c-.424.305-.635.459-.642.463a3.425,3.425,0,0,1-.856.319,3.021,3.021,0,0,1-1.337.015l-.812-.326a3.469,3.469,0,0,0-1.3-.107l-.021,0a2.922,2.922,0,0,1-2.01-1.3l-.236-.366-.58-.9-.257-.4c-.457-.709-1.077-1.684-1.161-1.815-1.522-2.39-1.994-3.16-2.937-4.7a4.247,4.247,0,0,1,.181-4.39,7.775,7.775,0,0,0,1.279-3q.019-.1.036-.2a7.792,7.792,0,0,0-.075-3q-.061-.276-.142-.545a3.671,3.671,0,0,1,1.578-3.186l6.142-4.26v0l.913-.6c.99-.653.954-.641,1.034-.682a3.544,3.544,0,0,1,2.259-.341,7.8,7.8,0,0,1,.852.334,3.632,3.632,0,1,0-2.6-4.516,3.993,3.993,0,0,0-.14,1.04c.013.222.024.283.028.409.028.881-.9,1.645-1.127,1.832-.007.006,0,0-1.136.75l-.685.452-.191.126-6.168,4.283a3.674,3.674,0,0,1-3.557.35,7.816,7.816,0,0,0-12.379,4.835c-.03.164-.054.328-.074.491a7.82,7.82,0,0,0,9.108,8.623,3.67,3.67,0,0,1,3.729,1.658l2.962,4.678,1.731,2.733a6.543,6.543,0,0,1,.3.592,4.7,4.7,0,0,1,.535,1.909c.023.9-.474,1.687-.506,2.575a3.57,3.57,0,0,0,.058.787,2.922,2.922,0,0,0,.446,1.153,4.217,4.217,0,0,0,1.631,1.5,3.766,3.766,0,0,0,.454.175,3.38,3.38,0,0,0,.647.125,3.635,3.635,0,0,0,2.3-.527,3.531,3.531,0,0,0,1.633-2.124c.16-.6-.04-1.326.176-1.938a3.5,3.5,0,0,1,1.13-1.377,4.738,4.738,0,0,1,.381-.289c.112-.076.2-.129.21-.137.052-.032.2-.132.464-.322.662-.471,2.072-1.49,4.655-3.372a3.667,3.667,0,0,1,2.393-.692,3.72,3.72,0,0,1,1.006.374,5.98,5.98,0,0,0,1.4.549,5.961,5.961,0,1,0,2.9-11.564Z" transform="translate(-392.925 -222.219)" fill="#fff"/>
    </g>
    <g id="Group_785" data-name="Group 785" transform="translate(429.221 226.02)">
      <g id="Group_783" data-name="Group 783">
        <path id="Path_1285" data-name="Path 1285" d="M924.268,287.014v-2.551h-2.68v2.551h-1.128v-6.108h1.128v2.551h2.68v-2.551H925.4v6.108Z" transform="translate(-920.459 -280.669)" fill="#fff"/>
        <path id="Path_1286" data-name="Path 1286" d="M1001.5,283.805h-1.243l3.593-6.345,3.593,6.345H1006.2l-.726-1.3h-3.255Zm1.229-2.2h2.235l-1.121-2.012Z" transform="translate(-994.764 -277.46)" fill="#fff"/>
        <path id="Path_1287" data-name="Path 1287" d="M1106.35,280.032a1.406,1.406,0,0,0-.873.223.7.7,0,0,0-.284.582.5.5,0,0,0,.18.4,1.218,1.218,0,0,0,.46.23q.281.079.762.172a7.878,7.878,0,0,1,1.164.291,1.845,1.845,0,0,1,.787.535,1.509,1.509,0,0,1,.327,1.028,1.627,1.627,0,0,1-.679,1.412,3.1,3.1,0,0,1-1.836.485,3.931,3.931,0,0,1-1.477-.259,3.222,3.222,0,0,1-1.017-.611l.5-.905a3.309,3.309,0,0,0,.909.543,2.9,2.9,0,0,0,1.1.212,1.716,1.716,0,0,0,1-.234.724.724,0,0,0,.323-.614.513.513,0,0,0-.183-.413,1.228,1.228,0,0,0-.456-.233q-.273-.079-.762-.18a8.342,8.342,0,0,1-1.153-.295,1.826,1.826,0,0,1-.773-.525,1.48,1.48,0,0,1-.323-1.013,1.68,1.68,0,0,1,.287-.977,1.821,1.821,0,0,1,.812-.64,3.106,3.106,0,0,1,1.221-.223,3.034,3.034,0,0,1,1.326.28,3.641,3.641,0,0,1,.959.64l-.482.87A2.789,2.789,0,0,0,1106.35,280.032Z" transform="translate(-1091.245 -278.918)" fill="#fff"/>
        <path id="Path_1288" data-name="Path 1288" d="M1186.574,280.089a1.962,1.962,0,0,0-1.035.287,2.134,2.134,0,0,0-.754.776,2.13,2.13,0,0,0,0,2.113,2.132,2.132,0,0,0,.754.776,1.96,1.96,0,0,0,1.035.287,2.5,2.5,0,0,0,.948-.183,3.251,3.251,0,0,0,.833-.492v1.236a3.052,3.052,0,0,1-1.782.5,3.175,3.175,0,0,1-1.617-.428,3.207,3.207,0,0,1-1.175-1.161,3.144,3.144,0,0,1,0-3.191,3.208,3.208,0,0,1,1.175-1.161,3.176,3.176,0,0,1,1.617-.428,3.117,3.117,0,0,1,1.811.539l-.029,1.207A2.765,2.765,0,0,0,1186.574,280.089Z" transform="translate(-1165.26 -278.918)" fill="#fff"/>
        <path id="Path_1289" data-name="Path 1289" d="M1273.01,287.014v-2.551h-2.68v2.551H1269.2v-6.108h1.128v2.551h2.68v-2.551h1.128v6.108Z" transform="translate(-1245.206 -280.669)" fill="#fff"/>
        <path id="Path_1290" data-name="Path 1290" d="M1361.151,283.472v.977h-2.566v1.566h2.695v1h-3.823v-6.108h3.823v1.013h-2.695v1.552Z" transform="translate(-1327.39 -280.669)" fill="#fff"/>
        <path id="Path_1291" data-name="Path 1291" d="M1434.1,277.46v6.345H1433v-3.1l-2.336,3.334-2.328-3.334v3.1h-1.107V277.46l3.435,4.793Z" transform="translate(-1392.359 -277.46)" fill="#fff"/>
      </g>
      <g id="Group_784" data-name="Group 784" transform="translate(3.679 9.391)">
        <path id="Path_1292" data-name="Path 1292" d="M978.146,420.779a1.539,1.539,0,0,1,.259.9,1.728,1.728,0,0,1-.255.92,1.838,1.838,0,0,1-.7.661,2.078,2.078,0,0,1-1.01.244h-2.5v-6.108h2.407a2.1,2.1,0,0,1,.963.212,1.574,1.574,0,0,1,.643.578,1.527,1.527,0,0,1,.226.819,1.391,1.391,0,0,1-.2.744,1.3,1.3,0,0,1-.532.492A1.445,1.445,0,0,1,978.146,420.779Zm-1.333-1.1a.718.718,0,0,0,0-1.085.957.957,0,0,0-.658-.219h-1.092V419.9h1.092A.956.956,0,0,0,976.813,419.683Zm.162,2.6a.812.812,0,0,0,0-1.215,1.038,1.038,0,0,0-.719-.244h-1.193v1.7h1.193A1.038,1.038,0,0,0,976.975,422.288Z" transform="translate(-973.935 -417.158)" fill="#fff"/>
        <path id="Path_1293" data-name="Path 1293" d="M1054.406,423.5v-2.551h-2.68V423.5H1050.6v-6.108h1.128v2.551h2.68v-2.551h1.128V423.5Z" transform="translate(-1045.323 -417.158)" fill="#fff"/>
        <path id="Path_1294" data-name="Path 1294" d="M1131.636,420.294h-1.243l3.593-6.345,3.593,6.345h-1.243l-.726-1.3h-3.255Zm1.229-2.2h2.235l-1.121-2.012Z" transform="translate(-1119.628 -413.948)" fill="#fff"/>
        <path id="Path_1295" data-name="Path 1295" d="M1243.8,423.5h-1.128v-6.108h2.429a2.272,2.272,0,0,1,1.074.248,1.853,1.853,0,0,1,.733.676,1.772,1.772,0,0,1,.262.945,1.737,1.737,0,0,1-.208.848,1.761,1.761,0,0,1-.593.632,2.238,2.238,0,0,1-.895.331l1.811,2.429h-1.351l-1.717-2.371-.417.007Zm1.926-3.579a.849.849,0,0,0,0-1.286,1.111,1.111,0,0,0-.747-.251H1243.8v1.789h1.179A1.111,1.111,0,0,0,1245.726,419.924Z" transform="translate(-1224.181 -417.158)" fill="#fff"/>
        <path id="Path_1296" data-name="Path 1296" d="M1309.193,420.294h-1.243l3.593-6.345,3.593,6.345h-1.243l-.726-1.3h-3.255Zm1.229-2.2h2.235l-1.121-2.012Z" transform="translate(-1284.969 -413.948)" fill="#fff"/>
        <path id="Path_1297" data-name="Path 1297" d="M1402.563,423.5h-1.128v-5.095h-1.99v-1.013h5.1v1.013h-1.983Z" transform="translate(-1370.167 -417.158)" fill="#fff"/>
      </g>
    </g>
  </g>
</svg>
